<?xml version="1.0" encoding="UTF-8" standalone="no"?>
<svg xmlns:rdf="http://www.w3.org/1999/02/22-rdf-syntax-ns#" xmlns="http://www.w3.org/2000/svg" xml:space="preserve" height="207" viewBox="0 0 378.19949 207.00224" width="378.2" version="1.1" xmlns:cc="http://creativecommons.org/ns#" xmlns:dc="http://purl.org/dc/elements/1.1/"><g transform="matrix(1.25 0 0 -1.25 -457.53 664.25)"><g style=""><path d="m298.54 4.6016c-6.44 1.235-60.5 15.933-110.28 15.933-55.73 0-107.02-14.89-110.07-15.84 2.08 6.478 4.158 13.037 6.232 19.672 2.407 7.698 3.679 11.616 6.178 19.047 0.69 2.043 1.378 4.097 2.068 6.154 2.087 0.36 4.392 0.724 6.48 1.098 3.732 0.665 6.252 1.105 9.162 1.572 4.41 6.704 7.49 11.383 11.54 16.696-4.48 6.056-7.8 11.257-12.61 18.88-2.7 0.439-5.11 0.862-8.635 1.489-2.092 0.378-4.626 0.745-6.716 1.109-0.683 2.066-1.366 4.122-2.051 6.172-2.469 7.416-3.738 11.376-6.17 19.246-2.044 6.61-4.09 13.14-6.129 19.59 20.268-3.69 59.751-15.87 110.55-15.81 43.21 0.05 99.7 13.21 110.62 15.79-2.05-6.45-4.09-12.98-6.13-19.58-2.4-7.75-3.67-11.71-6.17-19.24-0.68-2.055-1.37-4.111-2.05-6.176-2.09-0.363-4.41-0.733-6.5-1.105-3.31-0.595-5.42-1.043-7.94-1.455v-35.813c2.53-0.415 4.65-0.869 7.95-1.459 2.08-0.368 4.39-0.738 6.47-1.099 0.69-2.06 1.38-4.11 2.06-6.153 2.52-7.511 3.78-11.44 6.17-19.095 2.07-6.618 3.91-13.162 5.97-19.623zm-209.67 178.68l-10.361 8.87 3.263 2.81 2.932-2.89s-0.164 0.7-0.164 1.9l-0.043 11.56h4.373v-22.25zm14.979 0.66c-2.19 0-4.289 0.82-6.067 2.93-0.496 0.58-1.075 1.32-1.24 1.57l3.467 2.39c0.29-0.28 0.83-1.03 1.32-1.57 0.74-0.82 1.36-1.19 2.56-1.19 1.49 0 2.73 1.28 2.73 2.76 0 0.95-0.54 1.86-1.08 2.57l-9.366 12.17h14.976l-0.03-3.92h-7.02l4.42-5.53c1.24-1.57 2.39-3.35 2.35-5.66-0.04-3.55-3.31-6.52-7.02-6.52zm-54.174 0.04c-6.689 0-12.057 4.92-12.057 10.9 0 5.99 5.491 10.94 12.307 10.94 3.591 0 6.563-1.32 9.779-4.05v-8.79h-13.166l-0.045 3.76h8.713v3.43c-1.691 1.23-3.385 1.77-5.244 1.77-4.336 0-7.967-3.18-7.967-7.06s3.508-7.06 7.762-7.06c2.226 0 4.291 0.66 6.603 2.64l3.012-2.72c-4.006-3.06-6.398-3.76-9.697-3.76zm-48.944 0.26v21.33h7.8399c4.1317 0 6.6057-2.43 6.6057-6.1 0-1.16-0.412-2.32-1.114-3.15-0.618-0.74-1.524-1.27-2.232-1.44 0.788-0.16 1.653-0.91 2.15-1.69 0.577-0.87 0.829-1.86 0.829-2.77 0-3.67-2.81-6.18-6.6508-6.18h-7.4278zm23.93 0v21.33h4.418v-21.33h-4.418zm-19.639 3.79h2.8106c1.6075 0 2.721 0.9 2.721 2.47 0 1.45-0.9877 2.52-2.639 2.52h-2.8926v-4.99zm0 8.67h3.2637c1.6475 0 2.6799 1.07 2.6799 2.51-0.04 1.53-1.0324 2.48-2.6799 2.48h-3.2637v-4.99z" transform="matrix(.8 0 0 -.8 366.02 531.4)" fill="#c41230"/><path d="m188.23 183.45v22.12h3.06v-15.32l17.71 16.02v-22.03h-3.06v15.26l-17.71-16.05zm118.43 0v22.12h3.05v-15.32l17.72 16.02v-22.03h-3.06v15.26l-17.71-16.05zm-164.89 0.49c-6.48 0-11.81 4.91-11.81 10.94s5.33 10.98 11.86 10.98c3.26 0 6.1-1.24 9.98-4.66l-2.23-2.07c-3.22 2.85-5.32 3.84-7.8 3.84-4.7 0-8.62-3.64-8.62-8.09 0-4.46 3.92-8.09 8.67-8.09 2.43 0 4.7 1.15 7.67 3.8l2.23-2.03c-3.67-3.26-6.69-4.62-9.95-4.62zm27.32 0c-6.57 0-11.85 4.95-11.85 10.94 0 6.03 5.28 10.98 11.85 10.98s11.85-4.95 11.85-10.94c0-6.03-5.28-10.98-11.85-10.98zm177.85 0c-6.48 0-11.81 4.91-11.81 10.94s5.32 10.98 11.85 10.98c3.26 0 6.11-1.24 9.99-4.66l-2.23-2.07c-3.22 2.85-5.32 3.84-7.8 3.84-4.71 0-8.63-3.64-8.63-8.09 0-4.46 3.92-8.09 8.67-8.09 2.44 0 4.7 1.15 7.67 3.8l2.23-2.03c-3.67-3.26-6.68-4.62-9.94-4.62zm-128.46 0.3v21.33h3.06v-9.33h9.53v-2.81h-9.53v-6.43h9.53v-2.76h-12.59zm21.04 0v21.33h13.17v-2.8h-10.11v-6.53h10.11v-2.81h-10.11v-6.4h10.11v-2.79h-13.17zm22.25 0v21.33h3.05v-8.79h3.43l8.21 9.21 2.19-2.03-7.56-8.05c2.15-0.58 4.09-2.35 4.09-5.41v-0.04c0-3.75-3.06-6.22-6.81-6.22h-6.6zm23.06 0v21.33h13.17v-2.8h-10.12v-6.53h10.12v-2.81h-10.12v-6.4h10.12v-2.79h-13.17zm78.94 0v21.33h13.16v-2.8h-10.11v-6.53h10.11v-2.81h-10.11v-6.4h10.11v-2.79h-13.16zm-194.68 2.55c4.79 0 8.67 3.67 8.67 8.13 0 4.41-3.88 8.05-8.67 8.05s-8.67-3.64-8.67-8.09c0-4.42 3.88-8.09 8.67-8.09zm95.77 0.21h3.18c2.15 0 3.96 1.23 3.96 3.5 0 2.31-1.77 3.55-3.92 3.55h-3.22v-7.05z" transform="matrix(.8 0 0 -.8 366.02 531.4)" fill="#949ca1"/><path d="m604.85 527.72c-1.647-5.169-3.124-10.405-4.774-15.699-1.908-6.123-2.922-9.266-4.932-15.276-0.552-1.634-1.098-3.274-1.647-4.922-1.67-0.289-3.516-0.584-5.184-0.879-2.638-0.473-4.33-0.836-6.358-1.168v-28.65c2.016-0.33 3.707-0.689 6.353-1.165 1.676-0.297 3.528-0.593 5.203-0.884 0.544-1.651 1.092-3.297 1.639-4.941 2-6.023 3.015-9.191 4.932-15.392 1.635-5.28 3.267-10.501 4.903-15.66-8.734 2.061-53.925 12.593-88.495 12.629-0.091 0-0.18 0.002-0.27 0.002-40.504 0-71.992-9.7-88.171-12.654 1.633 5.163 3.27 10.387 4.904 15.674 1.947 6.303 2.965 9.469 4.939 15.399 0.548 1.64 1.094 3.284 1.64 4.938 1.671 0.291 3.7 0.584 5.374 0.887 2.819 0.502 4.746 0.839 6.906 1.19 3.846 6.099 6.508 10.26 10.089 15.105-3.24 4.25-5.701 7.993-9.233 13.356-2.328 0.375-4.34 0.726-7.328 1.258-1.671 0.3-3.516 0.593-5.185 0.878-0.553 1.646-1.102 3.29-1.655 4.924-1.998 5.944-3.015 9.079-4.942 15.237-1.659 5.308-3.321 10.556-4.983 15.738 2.444-0.76 43.466-12.672 88.049-12.672 39.832 0 83.078 11.759 88.226 12.747m-179.04 2.666 1.056-3.289c1.668-5.2 3.342-10.492 4.978-15.726 1.93-6.168 2.948-9.309 4.955-15.272 0.551-1.634 1.1-3.278 1.651-4.924l0.342-1.017 1.057-0.181c0.693-0.12 1.415-0.239 2.143-0.361 1.024-0.17 2.058-0.341 3.031-0.515 2.487-0.444 4.426-0.785 6.58-1.138 2.994-4.548 5.293-8.02 8.06-11.725-3.088-4.248-5.543-8.068-8.939-13.447-1.826-0.301-3.579-0.609-6.134-1.065-0.891-0.16-1.902-0.32-2.881-0.476-0.859-0.137-1.711-0.274-2.486-0.411l-1.058-0.184-0.337-1.02c-0.547-1.652-1.092-3.295-1.64-4.931-2.01-6.039-3.027-9.215-4.95-15.439-1.538-4.979-3.141-10.104-4.9-15.664l-0.898-2.842 2.932 0.537c3.568 0.648 7.841 1.62 12.787 2.741 17.361 3.932 43.595 9.884 75.061 9.882h0.267c31.474-0.035 72.084-8.811 88.085-12.581l3.082-0.729-0.957 3.017c-1.561 4.926-3.209 10.191-4.9 15.649-1.923 6.224-2.939 9.396-4.946 15.429-0.544 1.641-1.089 3.287-1.636 4.937l-0.337 1.02-1.058 0.184c-0.755 0.131-1.54 0.264-2.332 0.397-0.969 0.162-1.945 0.324-2.867 0.488-1.083 0.195-2.004 0.37-2.859 0.531-0.706 0.135-1.359 0.26-2.011 0.376v25.627c0.639 0.116 1.277 0.239 1.969 0.368 0.867 0.164 1.805 0.346 2.907 0.542 0.95 0.17 1.957 0.338 2.956 0.504 0.752 0.127 1.502 0.251 2.218 0.376l1.057 0.182 0.341 1.016 0.31 0.936c0.447 1.333 0.89 2.661 1.336 3.986 1.984 5.931 3.002 9.077 4.946 15.315 0.741 2.379 1.456 4.771 2.145 7.088 0.847 2.828 1.717 5.755 2.625 8.597l0.919 2.879-2.967-0.57c-0.741-0.142-2.115-0.468-4.2-0.962-12.241-2.908-49.497-11.75-83.689-11.75-45.762 0-87.11 12.462-87.515 12.589l-3.299 1.026z" fill="#cfd4d8"/><path d="m491.33 444.64c8.634 0.687 17.054 0.986 25.343 0.92 25.373-0.2 49.52-3.808 74.798-10.109-1.937 6.38-2.909 9.459-4.872 15.423-5.469 0.906-8.243 1.327-13.839 2.072v45.043c5.596 0.747 8.37 1.162 13.839 2.07 1.963 5.916 2.935 8.97 4.872 15.304-33.595-8.397-65.191-12.03-100.3-9.273v-11.153c3.867-0.21 4.536-0.303 8.418-0.423-4.161-4.89-6.238-7.358-10.375-12.488-3.781 5.3-5.674 8.03-9.425 13.791 3.36-0.349 3.782-0.523 7.164-0.793v11.196c-15.834 2.199-32.091 5.131-44.599 8.492 1.944-6.314 2.751-8.813 4.71-14.714 4.291-0.709 6.456-1.046 10.825-1.656 6.201-9.656 9.344-13.945 15.671-21.971-6.632-8.689-9.923-13.339-16.425-23.892-4.237-0.593-6.335-0.924-10.498-1.613-1.96-5.962-2.747-8.863-4.683-15.242 15.282 3.737 28.802 6.282 44.669 8.472v11.67c-4.034-0.276-4.784-0.463-8.779-0.845 4.366 6.297 6.56 9.245 10.962 14.941 4.45-5.541 6.681-8.177 11.154-13.44-3.965-0.156-4.677-0.279-8.628-0.542v-11.24zm53.937 50.559c2.531 0.18 4.285 0.28 6.808 0.498v-40.475c-2.523 0.22-3.786 0.319-6.317 0.502h-0.491v39.475zm-24.661-1.024c1.613 0.015 2.421 0.029 4.032 0.056v-37.546c-1.117 0.021-1.677 0.025-2.794 0.04-7.045 8.119-10.576 11.96-17.615 20.067 6.546 7.007 9.829 10.356 16.377 17.383" fill="#fff"/></g></g></svg>
